<svg width="169" height="77" viewBox="0 0 169 77" xmlns="http://www.w3.org/2000/svg">
    <title>
        ADC-Global-Awards-and-Club_Logo-02
    </title>
    <desc>
        Created with Sketch.
    </desc>
    <g fill="none" fill-rule="evenodd">
        <g fill="#010000">
            <g>
                <g>
                    <g>
                        <path d="M106.68 42.428l-3.36 9.776-1.35-3.917 2.016-5.86h-2.293l-.87 2.525-.867-2.524h-2.09l1.914 5.56-1.347 3.917-3.26-9.477h-2.708L96.84 55.15h2.772l1.315-3.826 1.317 3.827h2.772l4.374-12.722h-2.71"/>
                        <path d="M163.02 46.518c-.3-.684.014-1.483.7-1.78.686-.3 1.49.015 1.79.698l2.277-.993c-.852-1.94-3.115-2.825-5.06-1.978-1.945.85-2.833 3.107-1.983 5.048 1.065 2.018 4.206 2.578 4.632 3.543.297.682-.016 1.485-.703 1.784-.687.298-1.488-.013-1.788-.7l-2.277.993c.85 1.94 3.116 2.825 5.06 1.977 1.945-.848 2.83-3.107 1.983-5.046-.98-2.055-4.058-2.242-4.63-3.546"/>
                        <path d="M149.41 52.61h-2.226v-7.643h2.225c2.147 0 3.893 1.68 3.893 3.822 0 2.14-1.746 3.82-3.894 3.82zm6.363-3.82c0-3.467-2.786-6.287-6.248-6.345v-.006h-4.842v12.697H149.522v-.003c3.463-.06 6.25-2.878 6.25-6.345z"/>
                        <path d="M130.408 47.627v-2.71h4.09c.748 0 1.358.61 1.358 1.357 0 .745-.605 1.35-1.35 1.356l-.01-.003h-4.088zm7.932 6.52v-2.778h-.006c-.022-.967-.403-1.842-1.012-2.504.63-.683 1.018-1.593 1.018-2.592 0-2.103-1.697-3.805-3.798-3.83v-.002h-6.428v12.695h2.294v-5.033h4.098c.714.002 1.297.563 1.344 1.265v2.776s.027.99.285.99h2.49c-.298 0-.285-.99-.285-.99z"/>
                        <path d="M115.054 20.958c-3.684 0-6.67 2.978-6.67 6.652 0 3.672 2.986 6.652 6.67 6.652 3.684 0 6.668-2.98 6.668-6.652 0-3.674-2.984-6.652-6.668-6.652zm0 2.583c2.25 0 4.083 1.826 4.083 4.07 0 2.245-1.833 4.07-4.083 4.07s-4.083-1.825-4.083-4.07c0-2.244 1.834-4.07 4.084-4.07z"/>
                        <path d="M97.95 31.752V21.206h-2.71v12.697h10.123v-2.15h-7.412"/>
                        <path d="M161.153 31.752V21.207h-2.71v12.697h10.12l.006-2.152h-7.417"/>
                        <path d="M132.84 31.427h-4.103v-2.712h4.102v.003c.748 0 1.357.61 1.357 1.355s-.61 1.354-1.358 1.354zm-.172-7.822c.725 0 1.312.59 1.312 1.312 0 .723-.587 1.314-1.312 1.314h-3.93v-2.625h3.93zm2.836 3.712c.55-.65.883-1.485.883-2.4 0-2.04-1.65-3.695-3.696-3.71h-6.25v12.697l6.4.003c2.123 0 3.84-1.717 3.84-3.834 0-1.082-.45-2.057-1.176-2.756z"/>
                        <path d="M84.215 29.512h3.938c-.685 1.287-2.04 2.168-3.6 2.168-2.25 0-4.08-1.824-4.08-4.07 0-2.244 1.83-4.07 4.08-4.07 1.757 0 3.253 1.112 3.827 2.666l2.162-1.52c-1.082-2.21-3.358-3.728-5.99-3.728-3.682 0-6.666 2.978-6.666 6.652 0 3.675 2.984 6.652 6.667 6.652 2.63 0 4.907-1.52 5.99-3.73v-3.147h-6.328v2.127"/>
                        <path d="M104.68 71.63c-.574 1.558-2.072 2.676-3.83 2.676-2.256 0-4.09-1.832-4.09-4.08 0-2.25 1.834-4.076 4.09-4.076 1.758 0 3.256 1.116 3.83 2.672l2.17-1.525c-1.088-2.208-3.366-3.73-6-3.73-3.69 0-6.68 2.98-6.68 6.66 0 3.678 2.99 6.663 6.68 6.663 2.634 0 4.912-1.524 6-3.736l-2.17-1.523"/>
                        <path d="M115.597 74.377V63.812h-2.715V76.53h10.133l.005-2.153h-7.423"/>
                        <path d="M151.685 74.05h-4.12v-2.714h4.108v.003c.75 0 1.36.607 1.36 1.356 0 .742-.603 1.35-1.348 1.355zm-.186-7.833c.726 0 1.316.59 1.316 1.314 0 .726-.59 1.315-1.317 1.315h-3.936v-2.628h3.935zm4.022 6.48c0-1.087-.456-2.067-1.182-2.764.553-.65.886-1.486.886-2.402 0-1.988-1.568-3.61-3.54-3.706v-.012h-6.422V76.53h6.604v-.01c2.033-.1 3.654-1.77 3.654-3.824z"/>
                        <path d="M135.603 63.812v7.983c0 1.43-1.166 2.593-2.6 2.593-1.436 0-2.602-1.163-2.602-2.593v-7.983h-2.59v8.06c.044 2.824 2.35 5.1 5.192 5.1 2.84 0 5.146-2.276 5.188-5.1h.003v-8.06h-2.59"/>
                        <path d="M84.503 70.268v-.012l-2.04-1.737c-.136.05-.322.148-.46.234-.56.36-.857.857-.857 1.514 0 1.254.92 1.577 1.678 1.577.758 0 1.68-.323 1.68-1.577zm1.305 1.093l-.435-.372c-.324 1.317-1.517 1.8-2.55 1.8-1.217 0-2.635-.657-2.635-2.532 0-.967.51-1.787 1.368-2.284l.174-.098c-.833-.646-1.144-1.18-1.144-1.974 0-1.59 1.355-2.147 2.337-2.147 1.392 0 2.5.93 2.5 2.383h-.958c0-.895-.647-1.452-1.542-1.452-.658 0-1.39.21-1.39 1.24 0 .56.247.808.632 1.13l4.24 3.562-.597.745z"/>
                        <path d="M81.053 75.875h3.975v.713h-3.975v-.713z"/>
                        <path d="M39.875 33.09c-1.662-3.914-5.49-6.443-9.75-6.443h-7.97l-.08-.104 1.254-5.066c.147-.4.63-.818 1.113-.818h11.622c.42 0 .91.345 1.093.767l2.876 11.61-.16.053zm-9.75 11.98l-.005-.006h-4.632c-.338-.008-.607-.272-.617-.605V29.924c.018-.31.247-.554.55-.59h.01l4.698.003c4.347.002 7.883 3.53 7.883 7.866 0 4.337-3.537 7.865-7.886 7.865zM25.55 12.51c.15-.4.632-.814 1.114-.814h7.187c.46 0 .912.375 1.082.737l1.317 5.312-.083.105H24.335l-.082-.105 1.297-5.236zm18.127 35.25h2.92l-8.903-35.962.082-.105h3.78V9.645c0-.254-.208-.46-.46-.46h-21.69c-.253 0-.46.206-.46.458v2.05h3.78l.083.105-8.89 35.962h2.897l5.025-20.282.165.02V47.76h8.117c5.837 0 10.584-4.735 10.584-10.556 0-.288-.013-.588-.042-.917l.166-.027 2.845 11.5z"/>
                        <path d="M57.454 33.723c-.002.01-.005.018-.005.03-1.904 13.35-13.54 23.417-27.066 23.417-7.29 0-14.15-2.84-19.32-7.996-5.17-5.155-8.017-12-8.017-19.272 0-15.034 12.264-27.267 27.337-27.267 13.537 0 25.168 10.073 27.072 23.447h2.617c.002-.022.007-.043.007-.065v-.03c-.002-.027-.003-.045-.006-.065-.865-6.526-3.808-12.456-8.51-17.146-5.657-5.643-13.178-8.75-21.18-8.75-8 0-15.52 3.108-21.18 8.75C3.547 14.42.43 21.923.43 29.902c0 7.982 3.117 15.483 8.774 21.128 5.66 5.64 13.18 8.75 21.18 8.75s15.523-3.11 21.18-8.752c4.722-4.71 7.665-10.637 8.507-17.14.005-.03.007-.056.004-.075v-.024c0-.024-.004-.045-.005-.067h-2.616"/>
                        <path d="M115.912 50.07l1.466-3.58 1.467 3.58h-2.933zm2.657-7.617h-2.38L111 55.127h2.84l1.015-2.476h5.047l1.022 2.497h2.842l-5.197-12.694z"/>
                        <path d="M82.798 50.07l1.468-3.58 1.466 3.58h-2.934zm2.655-7.617h-2.378l-5.19 12.674h2.842l1.016-2.476h5.045l1.023 2.497h2.842l-5.2-12.694z"/>
                        <path d="M145.467 28.825l1.468-3.582 1.464 3.582h-2.933zm2.656-7.618h-2.38l-5.186 12.672h2.84l1.014-2.477h5.046l1.023 2.5h2.84l-5.197-12.696z"/>
                    </g>
                </g>
            </g>
        </g>
    </g>
</svg>
