<svg width="46" height="48" viewBox="0 0 46 48" xmlns="http://www.w3.org/2000/svg">
  <g fill="none" fill-rule="evenodd">
    <g>
      <path d="M1 37.05L6.02 46 11 37v-2H1v2.05z" stroke="#f00" stroke-width="2"/>
      <path d="M1 32.996V3.006C1 1.9 1.895 1 3 1h6c1.113 0 2 .9 2 2.007V36H1v-3.004z" stroke="#f00" stroke-width="2" fill="#fff"/>
      <path fill-opacity=".5" fill="#f00" d="M1.5 7h9v1h-9z"/>
      <path id="Rectangle-32" fill-opacity=".5" fill="#f00" d="M8 8h1v28H8z"/>
      <path fill-opacity=".5" fill="#f00" d="M3 8h1v28H3z"/>
      <path d="M4.5 42h3l-1.35 3-1.65-3z" fill="#f00"/>
    </g>
    <g transform="translate(23 1)">
      <rect stroke="#f00" stroke-width="2" fill="#fff" x="4" y="41" width="14" height="5" rx=".5"/>
      <path d="M6.5 6.99c-.083.007-.166.01-.25.01-.394 0-.77-.065-1.12-.183C4.78 6.935 4.4 7 4 7 2.343 7 1 5.88 1 4.5c0-1.33 1.25-2.42 2.823-2.496C4.42 1.388 5.285 1 6.25 1c.893 0 1.7.332 2.288.87C9.23.752 10.522 0 12 0c1.78 0 3.287 1.09 3.807 2.595C16.35 2.22 17.02 2 17.75 2 19.545 2 21 3.343 21 5s-1.455 3-3.25 3c-.258 0-.51-.028-.75-.08V9.5H6.5V6.99z" stroke="#f00" stroke-width="2" fill="#fff"/>
      <path d="M11 42H4v-6.738C4 31 0 25.317 0 15.657S.693 6 .693 6h20.614S22 5.92 22 15.657c0 9.738-4 15.343-4 19.605V42h-7z" stroke="#f00" stroke-width="2" fill="#fff"/>
      <circle fill="#f00" cx="11" cy="17" r="7"/>
      <circle fill="#fff" cx="8" cy="15" r="1"/>
      <path d="M14 18c0 1.657-1.343 3-3 3s-3-1.343-3-3" fill="#fff"/>
      <circle fill="#fff" cx="14" cy="15" r="1"/>
      <path fill="#fff" d="M5 42h12v1H5z"/>
      <path fill="#FF7F7F" d="M5 41h12v1H5z"/>
    </g>
  </g>
</svg>
