<svg width="196" height="24" viewBox="0 0 196 24" xmlns="http://www.w3.org/2000/svg">
    <title>
        Ramblin’Man
    </title>
    <desc>
        Created with Sketch.
    </desc>
    <g fill="none" fill-rule="evenodd">
        <g fill="#020000">
            <g>
                <g>
                    <path d="M3.012 20.365c-.62.062-1.767.28-2.294.434C.5 21.325.284 22.38.222 23h9.083c.093-.496.062-1.736-.093-2.263-.65-.186-1.674-.28-2.45-.34v-6.914c.807.124 1.8.186 2.76.186 2.294 4.804 4.898 9.144 5.86 9.795 1.022-.062 2.79-.31 3.75-.59.28-.62.496-1.797.496-2.603l-1.83.155c-.65-.31-2.913-3.813-4.773-7.316 2.542-.805 4.588-2.85 4.588-5.92 0-4.34-3.75-6.262-8.525-6.262-2.635 0-5.86.155-8.34.372-.06.65-.03 1.89.063 2.418.59.124 1.55.186 2.202.186v16.46zM6.762 3.47c.528-.062 1.24-.093 1.83-.093 3.007 0 5.24 1.333 5.24 4 0 2.79-1.8 4.03-4.155 4.03-.93 0-2.046-.032-2.914-.156V3.47zM30.48 21.233c.186.992.744 1.922 1.395 2.294 1.364 0 3.1-.465 3.844-.9.248-.495.434-1.146.434-1.735 0-.093 0-.248-.03-.403-.59.154-1.58.31-2.108.31-.248-.373-.403-1.148-.403-1.954v-5.61c0-4.124-1.8-5.674-5.426-5.674-1.767 0-4.216.434-5.3.96-.28.466-.466 1.365-.466 2.17 0 .342.03.807.124 1.055 1.116-.682 3.38-1.395 4.774-1.395 1.86 0 2.82.93 2.82 2.914v1.426c-.743-.34-1.766-.527-2.696-.527-3.286 0-6.045 1.674-6.045 4.99 0 2.977 2.17 4.372 4.433 4.372 2.077 0 3.596-.837 4.433-2.294h.218zm-.28-1.643c-.557.775-1.642 1.333-2.85 1.333-1.272 0-2.388-.682-2.388-2.263 0-1.488 1.178-2.48 3.286-2.48.527 0 1.395.093 1.953.248v3.162zm13.176-7.47c.65-.87 1.953-1.83 3.317-1.83 1.954 0 2.605 1.395 2.605 3.503v6.665c-.496.186-1.178.465-1.58.744-.187.434-.342 1.21-.404 1.798h7.658c.093-.527.03-1.488-.093-1.922-.496-.217-1.426-.434-2.108-.496V12.12c.65-.838 1.922-1.83 3.317-1.83 1.953 0 2.604 1.395 2.604 3.503v6.665c-.496.186-1.178.465-1.58.744-.218.434-.373 1.21-.435 1.798h7.843c.03-.186.062-.434.062-.713 0-.403-.03-.806-.124-1.21-.62-.216-1.612-.433-2.356-.495.124-2.294.186-4.96.186-7.41 0-4.835-2.263-5.61-4.743-5.61-2.727 0-4.34 1.55-4.96 2.976h-.216c-.558-2.45-2.2-2.976-4.216-2.976-2.666 0-4.216 1.457-4.898 2.82h-.403V8.028c-.434-.155-1.147-.248-1.767-.248-1.085 0-2.17.216-2.852.526-.34.527-.62 1.52-.65 2.2h2.23v9.952c-.588.186-1.425.465-1.89.744-.217.434-.403 1.21-.465 1.798h8.153c.062-.527 0-1.488-.093-1.922-.527-.217-1.457-.403-2.14-.496V12.12zm24.21 10.105c1.768.9 3.876 1.302 5.953 1.302 4.712 0 7.967-3.348 7.967-8.4 0-5.674-3.162-7.565-5.983-7.565-2.324 0-3.688 1.116-4.215 2.325h-.403c.124-1.426.248-3.224.248-4.774V.525c-.496-.186-1.333-.28-2.015-.28-1.147 0-2.356.218-3.13.528-.31.558-.59 1.52-.62 2.232h2.2v19.22zm3.473-10.323c.62-.93 1.736-1.705 3.193-1.705 2.046 0 3.534 1.922 3.534 5.363 0 3.348-1.426 5.58-4.588 5.58-.713 0-1.52-.124-2.14-.31v-8.928zm14.787-8.897v17.453c-.62.186-1.426.465-1.89.744-.218.434-.404 1.21-.466 1.798h8.37c.03-.186.062-.434.062-.713 0-.403-.03-.806-.124-1.21-.62-.216-1.674-.433-2.387-.495V.525c-.497-.186-1.334-.28-1.985-.28-1.178 0-2.387.218-3.13.528-.342.558-.62 1.52-.652 2.232h2.2zm10.013 7.502v9.95c-.62.187-1.426.466-1.89.745-.218.434-.404 1.21-.466 1.798h8.31c.03-.186.06-.434.06-.713 0-.403-.03-.806-.123-1.21-.59-.216-1.612-.433-2.325-.495V8.027c-.496-.155-1.333-.248-2.015-.248-1.178 0-2.387.216-3.13.526-.342.527-.62 1.52-.652 2.2h2.232zM97.717.215c-1.302 0-2.232.868-2.232 2.17 0 1.52.775 2.325 2.232 2.325 1.302 0 2.2-.837 2.2-2.325 0-1.364-.898-2.17-2.2-2.17zm11.718 11.935c.65-.9 2.015-1.86 3.44-1.86 1.985 0 2.667 1.395 2.667 3.503v6.665c-.496.186-1.21.465-1.612.744-.217.434-.372 1.21-.434 1.798h7.874c.03-.186.062-.434.062-.713 0-.403-.03-.806-.124-1.21-.62-.216-1.612-.433-2.356-.495.124-2.387.217-4.96.217-7.41 0-4.835-2.326-5.61-4.837-5.61-2.76 0-4.34 1.488-5.022 2.82h-.402V8.028c-.434-.155-1.147-.248-1.767-.248-1.084 0-2.17.216-2.85.526-.342.527-.62 1.52-.652 2.2h2.232v9.952c-.59.186-1.426.465-1.89.744-.218.434-.404 1.21-.466 1.798h8.153c.093-.527.03-1.488-.093-1.922-.496-.217-1.457-.403-2.14-.496V12.15zm16.12-8.556c-.217 1.457-.837 3.534-1.364 5.084.31.34 1.117.775 1.768.96 1.116-1.828 2.852-5.827 3.348-8.617-.744-.278-1.767-.402-2.635-.402-.495 0-.99.062-1.425.155-.496.527-.992 1.674-1.21 2.45l1.52.37zm18.197 19.778h2.48l4.805-13.268c.713-1.922 1.302-4.278 1.55-6.107h.31v16.368c-.59.062-1.58.28-2.077.434-.186.526-.403 1.58-.465 2.2h8.71c.032-.217.032-.403.032-.682 0-.558-.03-1.178-.155-1.55-.744-.155-1.798-.28-2.604-.34V3.81c.713-.03 1.767-.154 2.387-.278.124-.527.155-1.767.062-2.263h-7.223l-4.588 12.337c-.558 1.488-1.116 3.72-1.333 5.363h-.28c-.185-1.643-.743-3.875-1.3-5.394L139.628 1.27h-7.44c-.094.495-.063 1.735.06 2.293.497.093 1.427.217 2.078.28v16.553c-.558.093-1.52.28-2.015.434-.186.558-.372 1.55-.403 2.17h7.41c.092-.496.03-1.705-.094-2.2-.558-.187-1.426-.31-2.077-.373V4.06h.278c.217 1.766.837 4.06 1.488 5.89l4.836 13.422zm26.66-2.14c.186.993.744 1.923 1.395 2.295 1.364 0 3.1-.465 3.844-.9.25-.495.435-1.146.435-1.735 0-.093 0-.248-.03-.403-.59.154-1.582.31-2.11.31-.247-.373-.402-1.148-.402-1.954v-5.61c0-4.124-1.798-5.674-5.425-5.674-1.767 0-4.216.434-5.3.96-.28.466-.466 1.365-.466 2.17 0 .342.03.807.124 1.055 1.116-.682 3.38-1.395 4.774-1.395 1.86 0 2.82.93 2.82 2.914v1.426c-.743-.34-1.766-.527-2.696-.527-3.286 0-6.045 1.674-6.045 4.99 0 2.977 2.17 4.372 4.432 4.372 2.077 0 3.596-.837 4.433-2.294h.217zm-.28-1.642c-.557.775-1.642 1.333-2.85 1.333-1.272 0-2.388-.682-2.388-2.263 0-1.488 1.178-2.48 3.286-2.48.527 0 1.395.093 1.953.248v3.162zm13.176-7.44c.65-.9 2.015-1.86 3.44-1.86 1.985 0 2.667 1.395 2.667 3.503v6.665c-.496.186-1.21.465-1.612.744-.217.434-.372 1.21-.434 1.798h7.873c.03-.186.062-.434.062-.713 0-.403-.03-.806-.124-1.21-.62-.216-1.61-.433-2.355-.495.124-2.387.217-4.96.217-7.41 0-4.835-2.325-5.61-4.836-5.61-2.76 0-4.34 1.488-5.022 2.82h-.403V8.028c-.433-.155-1.146-.248-1.766-.248-1.085 0-2.17.216-2.852.526-.34.527-.62 1.52-.65 2.2h2.23v9.952c-.588.186-1.425.465-1.89.744-.217.434-.403 1.21-.465 1.798h8.153c.093-.527.03-1.488-.093-1.922-.496-.217-1.457-.403-2.14-.496V12.15z"/>
                </g>
            </g>
        </g>
    </g>
</svg>
