<svg width="206" height="25" viewBox="0 0 206 25" xmlns="http://www.w3.org/2000/svg" xmlns:xlink="http://www.w3.org/1999/xlink">
    <defs>
        <path id="a" d="M.02.014h205.863V25H.02"/>
        <path id="c" d="M.02.014h205.863V25H.02"/>
    </defs>
    <g fill="none" fill-rule="evenodd">
        <path d="M103.836 25c-.077 0-.154 0-.232-.002-4.985-.082-7.525-3.29-7.63-3.425-.362-.467-.28-1.14.185-1.504.462-.364 1.13-.28 1.49.182.094.116 2.07 2.538 5.99 2.604 2.304.038 4.218-.62 5.253-1.8.77-.88 1.058-2.028.858-3.412-.377-2.63-3.482-3.706-5.975-4.57l-.287-.098c-.556-.193-.85-.804-.658-1.362.192-.56.8-.857 1.355-.663l.283.1c2.72.94 6.827 2.362 7.392 6.286.29 2.007-.183 3.782-1.367 5.135-1.43 1.636-3.79 2.53-6.657 2.53" fill="#6AB5B4"/>
        <g>
            <mask id="b" fill="#fff">
                <use xlink:href="#a"/>
            </mask>
            <path d="M181.55 24.968c-.363 0-.717-.187-.916-.523l-5.326-8.967c-.154-.258-.192-.57-.106-.857.086-.287.29-.526.558-.656.04-.02 4.28-2.14 4.28-5.88 0-4.716-3.42-5.706-6.288-5.706h-6.375c-.588 0-1.066-.48-1.066-1.07 0-.593.48-1.073 1.067-1.073h6.375c5.273 0 8.42 2.935 8.42 7.85 0 3.778-2.895 6.188-4.482 7.225l4.773 8.037c.302.508.137 1.165-.368 1.47-.17.102-.36.15-.545.15M8.088 13.035c-.117 0-.235-.02-.352-.06-.225-.08-.463-.16-.712-.243-2.496-.84-6.27-2.11-6.522-5.834-.13-1.883.416-3.527 1.575-4.754C3.415.727 5.52-.032 7.992.01c4.504.074 6.803 2.978 6.9 3.1.36.468.277 1.14-.188 1.504-.462.363-1.13.28-1.492-.182-.082-.104-1.817-2.223-5.255-2.28-1.863-.027-3.412.49-4.335 1.468-.748.792-1.082 1.845-.994 3.13C2.772 8.874 5.01 9.796 7.7 10.7c.258.086.506.17.74.252.555.196.848.807.654 1.366-.154.44-.566.717-1.006.717" fill="#6AB5B4" mask="url(#b)"/>
        </g>
        <path d="M38.423 24.968c-.338 0-.67-.162-.877-.462l-9.185-13.34c-.335-.486-.214-1.154.27-1.49.483-.337 1.147-.216 1.482.27l9.186 13.34c.335.487.215 1.154-.27 1.49-.184.13-.396.192-.605.192M23.334 24.968c-.588 0-1.065-.48-1.065-1.072v-8c0-.593.476-1.073 1.064-1.073.59 0 1.066.48 1.066 1.072v8c0 .593-.477 1.073-1.066 1.073M46.702 9.05c-.588 0-1.065-.48-1.065-1.073v-6.67c0-.592.477-1.072 1.065-1.072s1.066.48 1.066 1.072v6.67c0 .592-.478 1.072-1.066 1.072M56.832 24.968c-.59 0-1.066-.48-1.066-1.072V1.306c0-.59.477-1.07 1.066-1.07.588 0 1.065.48 1.065 1.07v22.59c0 .592-.477 1.072-1.065 1.072M89.873 24.968h-12.95c-.59 0-1.066-.48-1.066-1.072 0-.592.477-1.07 1.066-1.07h12.95c.588 0 1.066.478 1.066 1.07 0 .592-.48 1.072-1.067 1.072M131.973.235c-.588 0-1.065.48-1.065 1.072v10.315h-5.984c-.59 0-1.065.48-1.065 1.072 0 .59.475 1.07 1.064 1.07h5.984v10.132c0 .592.477 1.072 1.065 1.072.59 0 1.066-.48 1.066-1.072V1.306c0-.59-.478-1.07-1.067-1.07M155.925 15.953h-10.98l5.922-14.233c.227-.546-.03-1.173-.572-1.4-.542-.23-1.167.027-1.394.573l-9.4 22.59c-.226.545.03 1.173.573 1.402.135.056.274.083.41.083.417 0 .813-.248.984-.658l2.586-6.214h11.872c.588 0 1.065-.48 1.065-1.07 0-.593-.477-1.073-1.065-1.073" fill="#6AB5B4"/>
        <g>
            <mask id="d" fill="#fff">
                <use xlink:href="#c"/>
            </mask>
            <path d="M204.817 24.968H191.03c-.587 0-1.064-.48-1.064-1.072V12.6c0-.59.477-1.07 1.065-1.07.59 0 1.067.48 1.067 1.07v10.225h12.72c.59 0 1.066.48 1.066 1.07 0 .593-.477 1.073-1.066 1.073" fill="#6AB5B4" mask="url(#d)"/>
            <path d="M8.087 25c-.076 0-.154 0-.23-.002C2.87 24.916.33 21.708.224 21.573c-.362-.467-.278-1.14.186-1.504.195-.153.426-.227.655-.227.316 0 .628.14.838.41.092.115 2.068 2.537 5.988 2.603h.188c2.22 0 4.06-.65 5.067-1.8.77-.88 1.058-2.028.858-3.412-.38-2.63-3.483-3.706-5.977-4.57l-.286-.098c-.005 0-.01-.003-.015-.005l.01.005c.118.04.236.06.353.06.44 0 .852-.276 1.006-.717.194-.56-.1-1.17-.654-1.366l-.01-.003h.006l.283.1c2.718.94 6.827 2.362 7.392 6.286.29 2.007-.184 3.782-1.367 5.135-1.43 1.636-3.79 2.53-6.658 2.53" fill="#E26329" mask="url(#d)"/>
            <path d="M8.088 13.035c-.117 0-.235-.02-.352-.06-.004 0-.007-.002-.01-.004-.548-.198-.836-.803-.645-1.356.153-.444.566-.723 1.008-.723.113 0 .228.02.34.06.005 0 .01 0 .012.002.555.196.848.807.654 1.366-.154.44-.566.717-1.006.717" fill="#795334" mask="url(#d)"/>
            <path d="M103.473 12.97c-.22-.077-.456-.156-.7-.238-2.497-.84-6.27-2.11-6.523-5.834-.128-1.883.416-3.527 1.575-4.754 1.303-1.38 3.33-2.136 5.722-2.136.065 0 .13 0 .194.002 4.504.074 6.803 2.978 6.9 3.1.36.468.277 1.14-.187 1.504-.195.153-.425.227-.654.227-.317 0-.63-.14-.84-.408-.082-.104-1.817-2.223-5.254-2.28h-.143c-1.8 0-3.293.515-4.193 1.468-.747.792-1.082 1.845-.994 3.13.145 2.123 2.383 3.045 5.073 3.95.253.085.497.167.728.248-.114-.038-.23-.057-.342-.057-.44 0-.854.28-1.006.724-.19.553.097 1.158.643 1.357" fill="#E26329" mask="url(#d)"/>
        </g>
        <path d="M103.836 13.035c-.116 0-.235-.02-.352-.06-.003 0-.007-.002-.01-.004-.547-.198-.835-.803-.644-1.356.152-.444.565-.723 1.006-.723.113 0 .228.02.342.058l.01.004c.556.196.85.807.654 1.366-.153.44-.565.717-1.006.717" fill="#795334"/>
        <path d="M69.782 24.968h-12.95c-.59 0-1.066-.48-1.066-1.072 0 .592.477 1.072 1.066 1.072.588 0 1.065-.48 1.065-1.072v-1.07h11.885c.59 0 1.066.478 1.066 1.07 0 .592-.477 1.072-1.066 1.072" fill="#E26329"/>
        <path d="M56.832 24.968c-.59 0-1.066-.48-1.066-1.072 0-.592.477-1.07 1.066-1.07h1.065v1.07c0 .592-.477 1.072-1.065 1.072" fill="#795334"/>
        <path d="M46.702 24.968c-.588 0-1.065-.48-1.065-1.072V7.976c0 .593.477 1.073 1.065 1.073s1.066-.48 1.066-1.073v15.92c0 .59-.478 1.07-1.066 1.07" fill="#E26329"/>
        <path d="M46.702 9.05c-.588 0-1.065-.48-1.065-1.073 0-.59.477-1.07 1.065-1.07s1.066.48 1.066 1.07c0 .592-.478 1.072-1.066 1.072" fill="#795334"/>
        <path d="M75.857 23.896V1.306c0-.59.477-1.07 1.066-1.07.588 0 1.065.48 1.065 1.07v21.52h-1.065c-.59 0-1.066.478-1.066 1.07" fill="#E26329"/>
        <path d="M76.923 24.968c-.59 0-1.066-.48-1.066-1.072 0-.592.477-1.07 1.066-1.07h1.065v1.07c0 .592-.477 1.072-1.065 1.072" fill="#795334"/>
        <path d="M117.875 24.968c-.59 0-1.066-.48-1.066-1.072V1.306c0-.59.476-1.07 1.065-1.07.588 0 1.065.48 1.065 1.07v10.316h5.984c-.59 0-1.065.48-1.065 1.072 0 .59.475 1.07 1.064 1.07h-5.984v10.132c0 .592-.477 1.072-1.065 1.072" fill="#E26329"/>
        <path d="M124.924 13.765c-.59 0-1.065-.48-1.065-1.07 0-.593.475-1.073 1.064-1.073.588 0 1.066.48 1.066 1.072 0 .59-.478 1.07-1.066 1.07" fill="#795334"/>
        <path d="M159.283 24.968c-.417 0-.812-.248-.983-.66l-2.586-6.212h.21c.59 0 1.066-.48 1.066-1.07 0-.593-.477-1.073-1.065-1.073h-1.102l-4.94-11.87.984-2.363c.11-.267.107-.553.01-.803l9.39 22.566c.226.545-.03 1.173-.573 1.402-.134.056-.274.083-.41.083M149.12.558c.097-.1.215-.182.35-.24.094-.04.19-.063.284-.075-.24.03-.464.14-.634.315" fill="#E26329"/>
        <path d="M155.925 18.096h-.21l-.892-2.143h1.102c.588 0 1.065.48 1.065 1.072 0 .59-.477 1.07-1.065 1.07m-6.04-14.012L148.9 1.72c-.17-.41-.068-.864.222-1.162.17-.175.395-.286.634-.315.043-.005.085-.008.127-.008.417 0 .813.247.984.658l.01.024c.097.25.1.536-.01.803l-.983 2.363" fill="#795334"/>
        <path d="M167.377 24.968c-.588 0-1.066-.48-1.066-1.072V1.306c0 .593.48 1.072 1.067 1.072h1.065v11.48h7.516c-.12.067-.192.103-.198.106-.27.13-.472.368-.558.657-.086.288-.048.6.106.858l.31.522h-7.176v7.896c0 .592-.477 1.072-1.065 1.072" fill="#E26329"/>
        <path d="M176.223 16h-.605l-.31-.522c-.154-.258-.192-.57-.106-.857.086-.287.29-.526.558-.656.006-.003.077-.04.198-.107h.265c.588 0 1.065.48 1.065 1.072 0 .59-.477 1.07-1.065 1.07m-7.78-13.622h-1.066c-.588 0-1.066-.48-1.066-1.07 0-.593.48-1.073 1.067-1.073.588 0 1.065.48 1.065 1.072v1.07" fill="#795334"/>
        <path d="M202.833 13.673h-10.736V12.6c0-.59-.477-1.07-1.066-1.07-.587 0-1.064.48-1.064 1.07V1.308c0-.592.477-1.072 1.065-1.072h13.787c.59 0 1.066.48 1.066 1.072 0 .592-.477 1.07-1.066 1.07h-12.72v9.153h10.736c.588 0 1.065.48 1.065 1.07 0 .593-.477 1.073-1.065 1.073" fill="#E26329"/>
        <path d="M192.097 13.673h-1.066c-.587 0-1.064-.48-1.064-1.072 0-.59.477-1.07 1.065-1.07.59 0 1.067.48 1.067 1.07v1.073" fill="#795334"/>
        <path d="M24.4 16.332v-.437c0-.592-.477-1.072-1.066-1.072-.588 0-1.065.48-1.065 1.072V1.307c0-.592.476-1.072 1.064-1.072.59 0 1.066.48 1.066 1.072V13.27L36.798.558c.208-.214.485-.322.76-.322.27 0 .54.103.747.307.42.414.427 1.092.015 1.515l-7.995 8.2-.213-.31c-.206-.3-.54-.462-.877-.462-.21 0-.42.062-.605.19-.484.337-.605 1.005-.27 1.492l.446.647-4.406 4.518" fill="#E26329"/>
        <path d="M28.806 11.814l-.445-.647c-.335-.487-.214-1.155.27-1.49.185-.13.396-.192.605-.192.338 0 .67.16.877.462l.213.31-1.52 1.557M23.334 16.966c-.136 0-.272-.026-.403-.08-.4-.164-.66-.556-.66-.99 0-.593.476-1.073 1.064-1.073.59 0 1.066.48 1.066 1.072v.437l-.305.313c-.204.21-.48.32-.76.32" fill="#795334"/>
    </g>
</svg>
