<svg width="121" height="34" viewBox="0 0 121 34" xmlns="http://www.w3.org/2000/svg">
    <title>
        slack_monochrome
    </title>
    <g fill="#010000" fill-rule="evenodd">
        <path d="M54.797 9.586c1.064.464 1.14.813.31 2.398-.85 1.625-1.064 1.722-2.108 1.296-1.317-.56-3-.986-4.082-.986-1.78 0-2.96.638-2.96 1.605 0 3.19 10.193 1.47 10.193 8.276 0 3.423-2.94 5.705-7.348 5.705-2.32 0-5.183-.772-7.156-1.778-.986-.503-1.044-.793-.193-2.417.735-1.432.967-1.586 2.03-1.14 1.683.734 3.81 1.294 5.242 1.294 1.624 0 2.707-.658 2.707-1.625 0-3.095-10.366-1.625-10.366-8.22 0-3.5 2.92-5.84 7.29-5.84 2.05 0 4.643.62 6.44 1.43M63.017 1.502v25.374c0 .386-.406.793-.986.793h-2.668c-.58 0-.986-.408-.986-.794V1.502c0-1.257.348-1.373 2.32-1.373 2.244 0 2.32.154 2.32 1.372M69.69 22.1c0 1.295 1.1 2.165 2.765 2.165 2.01 0 3.83-.967 4.892-2.61V19.95c-1.063-.406-2.36-.638-3.52-.638-2.475 0-4.138 1.18-4.138 2.785zm12.3-6.325v10.927c0 .58-.407.986-.987.986h-2.63c-.6 0-1.026-.445-.987-1.044l.04-1.18c-1.432 1.586-3.482 2.417-5.532 2.417-3.984 0-6.653-2.3-6.653-5.743 0-3.655 3.018-6.11 7.543-6.13 1.722 0 3.288.31 4.564.83v-1.256c0-2.01-1.585-3.21-4.274-3.21-1.257 0-2.804.504-4.04 1.22-.95.54-1.18.502-2.206-1.025-1.006-1.528-.967-1.818 0-2.437 1.856-1.2 4.37-1.973 6.69-1.973 5.204 0 8.472 2.824 8.472 7.62zM100.092 9.625c.966.56 1.005.87-.06 2.514-1.004 1.546-1.178 1.643-2.242 1.1-.812-.424-2.108-.792-3.172-.792-3.345 0-5.57 2.205-5.57 5.532 0 3.46 2.225 5.782 5.57 5.782 1.16 0 2.61-.445 3.56-.967.966-.56 1.18-.522 2.204.967.928 1.392.908 1.72.077 2.3-1.49 1.026-3.85 1.82-5.92 1.82-6.187 0-10.326-3.965-10.326-9.902 0-5.9 4.14-9.825 10.366-9.825 1.895 0 4.12.638 5.512 1.47M120.282 25.27c.774.987.465 1.335-1.47 2.03-1.972.717-2.243.678-2.94-.23l-5.53-7.39-2.476 2.4v4.796c0 .386-.405.793-.986.793h-2.67c-.58 0-.985-.408-.985-.794V1.502c0-1.257.348-1.373 2.32-1.373 2.244 0 2.32.154 2.32 1.372V15.93l7.583-7.272c.83-.793 1.295-.735 2.784.25 1.644 1.065 1.76 1.355.967 2.13l-5.648 5.49 6.73 8.742"/>
        <g>
            <path d="M26.668 19.91l-2.203.74.764 2.278c.308.923-.19 1.922-1.113 2.23-.2.068-.405.097-.605.092-.72-.02-1.384-.48-1.625-1.203l-.764-2.28-4.543 1.522.764 2.28c.31.92-.19 1.92-1.112 2.23-.2.067-.405.096-.605.09-.72-.018-1.383-.48-1.625-1.202l-.764-2.28-2.203.738c-.2.068-.405.097-.605.092-.72-.02-1.384-.48-1.626-1.203-.31-.923.19-1.922 1.112-2.23l2.203-.74-1.466-4.37-2.203.736c-.2.07-.404.098-.604.093-.72-.02-1.384-.48-1.625-1.203-.31-.923.19-1.922 1.112-2.23l2.203-.74-.764-2.278c-.308-.923.19-1.922 1.113-2.23.923-.31 1.92.188 2.23 1.11l.764 2.28 4.543-1.52-.764-2.28c-.31-.924.19-1.922 1.112-2.232.922-.31 1.92.19 2.23 1.112l.764 2.28 2.203-.738c.923-.31 1.922.188 2.23 1.11.31.924-.188 1.923-1.11 2.232l-2.204.738 1.466 4.372 2.203-.737c.922-.31 1.92.187 2.23 1.11.31.923-.19 1.922-1.112 2.23zm5.91-7.583C29.07.644 24.007-2.083 12.327 1.423.643 4.928-2.083 9.99 1.422 21.673c3.505 11.683 8.568 14.41 20.25 10.904 11.683-3.505 14.41-8.568 10.904-20.25zm-18.582 3.247l1.465 4.373 4.544-1.52-1.465-4.374-4.544 1.52z"/>
        </g>
    </g>
</svg>
